<svg id="Logo" xmlns="http://www.w3.org/2000/svg" width="179.88" height="55.055" viewBox="0 0 179.88 55.055">
  <path id="mahone" d="M36.781,0H27.467V-13.4a4.932,4.932,0,0,0-.324-2.142,1.212,1.212,0,0,0-1.17-.6q-1.569,0-1.569,2.764V0H15.091V-13.4a4.768,4.768,0,0,0-.336-2.142,1.241,1.241,0,0,0-1.183-.6q-1.544,0-1.544,2.764V0H2.714V-15.29A9.878,9.878,0,0,1,5.528-22.4a9.115,9.115,0,0,1,6.823-2.926,9.984,9.984,0,0,1,7.421,3.486q3.661-3.486,7.321-3.486a9.227,9.227,0,0,1,7.471,3.387q2.216,2.64,2.216,7.695ZM56.54-9.313V.324a12.293,12.293,0,0,1-2.092.2A12.76,12.76,0,0,1,45.11-3.163,12.445,12.445,0,0,1,41.375-12.4a12.45,12.45,0,0,1,3.773-9.164,12.512,12.512,0,0,1,9.177-3.76q6.026,0,9.5,3.524T67.3-12.177V0H57.985V-11.5a4.8,4.8,0,0,0-.959-3.138,3.159,3.159,0,0,0-2.577-1.17,3.471,3.471,0,0,0-2.54,1.071,3.471,3.471,0,0,0-1.071,2.54,3.488,3.488,0,0,0,.971,2.54,3.3,3.3,0,0,0,2.465,1A4.226,4.226,0,0,0,56.54-9.313ZM82.55-33.992v10.384a8.021,8.021,0,0,1,4.731-1.718,6.946,6.946,0,0,1,5.69,2.59,10.774,10.774,0,0,1,2.1,7V0H85.763V-13.124a4.579,4.579,0,0,0-.336-2.142,1.412,1.412,0,0,0-1.307-.548q-1.569,0-1.569,2.316V0H73.237V-33.992Zm30.243,8.641a12.306,12.306,0,0,1,9.052,3.8,12.457,12.457,0,0,1,3.773,9.1A12.421,12.421,0,0,1,121.8-3.287,12.635,12.635,0,0,1,112.57.5a12.655,12.655,0,0,1-9.239-3.8A12.413,12.413,0,0,1,99.5-12.451a12.285,12.285,0,0,1,3.835-9.177A13.059,13.059,0,0,1,112.794-25.351Zm-.249,9.189A3.4,3.4,0,0,0,110-15.078a3.674,3.674,0,0,0-1.046,2.652,3.663,3.663,0,0,0,1.058,2.64,3.393,3.393,0,0,0,2.528,1.1,3.42,3.42,0,0,0,2.552-1.1,3.663,3.663,0,0,0,1.058-2.64,3.674,3.674,0,0,0-1.046-2.652A3.427,3.427,0,0,0,112.545-16.162ZM152.151,0h-9.313V-14.02q0-2.142-1.768-2.142-1.743,0-1.743,2.142V0h-9.313V-13.846a11.321,11.321,0,0,1,3.212-8.18,10.52,10.52,0,0,1,7.869-3.324,10.554,10.554,0,0,1,8.542,3.86q2.515,3.013,2.515,8.392Zm30.343-10.907h-14.12a6.842,6.842,0,0,1-.324-1.967,6.9,6.9,0,0,1,.448-2.44h4.731a2.928,2.928,0,0,0-3.113-2.764,3.379,3.379,0,0,0-2.839,1.482,6.221,6.221,0,0,0-1.1,3.8,6.62,6.62,0,0,0,1.058,3.91A3.255,3.255,0,0,0,170.018-7.4a3.708,3.708,0,0,0,2.689-1.395l5.3,6.375A13.026,13.026,0,0,1,169.769.5a12.707,12.707,0,0,1-9.289-3.71,12.4,12.4,0,0,1-3.76-9.189,12.467,12.467,0,0,1,3.8-9.214,12.743,12.743,0,0,1,9.326-3.76,12.331,12.331,0,0,1,9.077,3.673,12.3,12.3,0,0,1,3.673,9.052Q182.594-12.1,182.494-10.907Z" transform="translate(-2.714 33.992)" fill="#f55f42"/>
  <path id="CONSTRUCTION_LTD" data-name="CONSTRUCTION LTD" d="M.315-3.15A3.291,3.291,0,0,1,.734-4.811,2.988,2.988,0,0,1,1.877-5.954,3.243,3.243,0,0,1,3.5-6.363a3.2,3.2,0,0,1,1.845.54A2.823,2.823,0,0,1,6.453-4.329H5A1.5,1.5,0,0,0,4.4-5a1.783,1.783,0,0,0-.9-.225,1.861,1.861,0,0,0-.977.257,1.75,1.75,0,0,0-.666.724,2.388,2.388,0,0,0-.238,1.1A2.4,2.4,0,0,0,1.85-2.056a1.744,1.744,0,0,0,.666.729,1.861,1.861,0,0,0,.977.257,1.755,1.755,0,0,0,.9-.23A1.529,1.529,0,0,0,5-1.98H6.453a2.808,2.808,0,0,1-1.1,1.5A3.209,3.209,0,0,1,3.5.054a3.243,3.243,0,0,1-1.625-.41A3,3,0,0,1,.734-1.494,3.266,3.266,0,0,1,.315-3.15ZM15.039.063a3.255,3.255,0,0,1-1.62-.414A3.091,3.091,0,0,1,12.249-1.5a3.21,3.21,0,0,1-.432-1.661,3.193,3.193,0,0,1,.432-1.651,3.091,3.091,0,0,1,1.17-1.148,3.255,3.255,0,0,1,1.62-.414,3.247,3.247,0,0,1,1.625.414,3.067,3.067,0,0,1,1.161,1.148,3.219,3.219,0,0,1,.427,1.651A3.236,3.236,0,0,1,17.825-1.5,3.058,3.058,0,0,1,16.659-.351,3.255,3.255,0,0,1,15.039.063Zm0-1.125a1.919,1.919,0,0,0,1-.257,1.758,1.758,0,0,0,.675-.734,2.407,2.407,0,0,0,.243-1.107,2.379,2.379,0,0,0-.243-1.1,1.734,1.734,0,0,0-.675-.724,1.946,1.946,0,0,0-1-.252,1.971,1.971,0,0,0-1,.252,1.726,1.726,0,0,0-.679.724,2.379,2.379,0,0,0-.243,1.1,2.407,2.407,0,0,0,.243,1.107,1.749,1.749,0,0,0,.679.734A1.943,1.943,0,0,0,15.039-1.062ZM29.151,0h-1.26L25.038-4.311V0h-1.26V-6.291h1.26l2.853,4.32v-4.32h1.26Zm8,.063a2.984,2.984,0,0,1-1.184-.225,1.943,1.943,0,0,1-.833-.648,1.706,1.706,0,0,1-.315-1h1.35a.873.873,0,0,0,.275.612.973.973,0,0,0,.68.225,1.045,1.045,0,0,0,.693-.212.688.688,0,0,0,.252-.553A.64.64,0,0,0,37.9-2.2a1.2,1.2,0,0,0-.427-.283,7.075,7.075,0,0,0-.707-.23,7.566,7.566,0,0,1-.994-.355,1.742,1.742,0,0,1-.657-.531,1.513,1.513,0,0,1-.274-.95,1.7,1.7,0,0,1,.279-.972,1.775,1.775,0,0,1,.783-.635,2.849,2.849,0,0,1,1.152-.22,2.5,2.5,0,0,1,1.579.472A1.752,1.752,0,0,1,39.3-4.581H37.917a.72.72,0,0,0-.275-.536,1.034,1.034,0,0,0-.679-.211.875.875,0,0,0-.59.189.683.683,0,0,0-.221.549.568.568,0,0,0,.167.419,1.27,1.27,0,0,0,.414.27q.248.1.7.239a7.328,7.328,0,0,1,1,.36,1.794,1.794,0,0,1,.666.54,1.5,1.5,0,0,1,.279.945,1.778,1.778,0,0,1-.261.936,1.843,1.843,0,0,1-.765.689A2.609,2.609,0,0,1,37.152.063ZM49.329-6.282v1.017H47.655V0H46.4V-5.265H44.721V-6.282ZM58.077,0,56.691-2.448H56.1V0h-1.26V-6.282h2.358a2.753,2.753,0,0,1,1.242.256,1.792,1.792,0,0,1,.77.693,1.891,1.891,0,0,1,.257.977,1.87,1.87,0,0,1-.36,1.121,1.849,1.849,0,0,1-1.071.688L59.535,0ZM56.1-3.393H57.15a1.052,1.052,0,0,0,.765-.247.921.921,0,0,0,.252-.689A.879.879,0,0,0,57.915-5a1.077,1.077,0,0,0-.765-.238H56.1ZM66.438-6.282v3.888a1.333,1.333,0,0,0,.333.976,1.256,1.256,0,0,0,.936.338,1.268,1.268,0,0,0,.945-.338,1.333,1.333,0,0,0,.333-.976V-6.282h1.269V-2.4a2.5,2.5,0,0,1-.346,1.355,2.2,2.2,0,0,1-.927.833,2.943,2.943,0,0,1-1.292.279,2.864,2.864,0,0,1-1.273-.279,2.124,2.124,0,0,1-.9-.833A2.583,2.583,0,0,1,65.178-2.4V-6.282ZM75.753-3.15a3.291,3.291,0,0,1,.418-1.661,2.988,2.988,0,0,1,1.143-1.143,3.243,3.243,0,0,1,1.624-.409,3.2,3.2,0,0,1,1.845.54,2.823,2.823,0,0,1,1.107,1.494H80.442A1.5,1.5,0,0,0,79.834-5a1.783,1.783,0,0,0-.9-.225,1.861,1.861,0,0,0-.976.257,1.75,1.75,0,0,0-.666.724,2.388,2.388,0,0,0-.239,1.1,2.4,2.4,0,0,0,.239,1.094,1.744,1.744,0,0,0,.666.729,1.861,1.861,0,0,0,.976.257,1.755,1.755,0,0,0,.9-.23,1.529,1.529,0,0,0,.607-.68h1.449a2.808,2.808,0,0,1-1.1,1.5,3.209,3.209,0,0,1-1.85.536,3.243,3.243,0,0,1-1.624-.41,3,3,0,0,1-1.143-1.139A3.266,3.266,0,0,1,75.753-3.15ZM91.836-6.282v1.017H90.162V0H88.9V-5.265H87.228V-6.282Zm6.768,0V0h-1.26V-6.282ZM107.352.063a3.255,3.255,0,0,1-1.62-.414,3.091,3.091,0,0,1-1.17-1.147,3.21,3.21,0,0,1-.432-1.661,3.193,3.193,0,0,1,.432-1.651,3.091,3.091,0,0,1,1.17-1.148,3.255,3.255,0,0,1,1.62-.414,3.247,3.247,0,0,1,1.624.414,3.067,3.067,0,0,1,1.161,1.148,3.219,3.219,0,0,1,.427,1.651,3.236,3.236,0,0,1-.427,1.661,3.058,3.058,0,0,1-1.166,1.147A3.255,3.255,0,0,1,107.352.063Zm0-1.125a1.919,1.919,0,0,0,1-.257,1.758,1.758,0,0,0,.675-.734,2.407,2.407,0,0,0,.243-1.107,2.379,2.379,0,0,0-.243-1.1,1.734,1.734,0,0,0-.675-.724,1.946,1.946,0,0,0-1-.252,1.971,1.971,0,0,0-1,.252,1.726,1.726,0,0,0-.68.724,2.379,2.379,0,0,0-.243,1.1,2.407,2.407,0,0,0,.243,1.107,1.749,1.749,0,0,0,.68.734A1.943,1.943,0,0,0,107.352-1.062ZM121.464,0H120.2l-2.853-4.311V0h-1.26V-6.291h1.26l2.853,4.32v-4.32h1.26Zm13.824-1h2.07V0h-3.33V-6.282h1.26Zm11.736-5.283v1.017H145.35V0h-1.26V-5.265h-1.674V-6.282Zm7.7,0a3.752,3.752,0,0,1,1.742.387,2.765,2.765,0,0,1,1.161,1.1,3.284,3.284,0,0,1,.41,1.661,3.235,3.235,0,0,1-.41,1.652,2.781,2.781,0,0,1-1.161,1.094A3.752,3.752,0,0,1,154.728,0h-2.2V-6.282Zm-.045,5.211a2.069,2.069,0,0,0,1.53-.54,2.057,2.057,0,0,0,.54-1.521,2.1,2.1,0,0,0-.54-1.534,2.04,2.04,0,0,0-1.53-.554h-.891v4.149Z" transform="translate(0.286 54.992)" fill="#f55f42"/>
  <path id="Black_bar" data-name="Black bar" d="M0,0H18.417" transform="translate(160.786 42.992)" fill="none" stroke="#f78b10" stroke-width="6"/>
</svg>
